<?xml version="1.0" encoding="utf-8"?>
<!-- Generator: Adobe Illustrator 16.0.0, SVG Export Plug-In . SVG Version: 6.00 Build 0)  -->
<!DOCTYPE svg PUBLIC "-//W3C//DTD SVG 1.1//EN" "http://www.w3.org/Graphics/SVG/1.1/DTD/svg11.dtd">
<svg version="1.1" id="Layer_1" xmlns="http://www.w3.org/2000/svg" xmlns:xlink="http://www.w3.org/1999/xlink" x="0px" y="0px"
	 width="26px" height="26px" viewBox="0 0 26 26" enable-background="new 0 0 26 26" xml:space="preserve">
<g>
	<path fill="#000000" d="M0.5,13C0.5,6.097,6.096,0.5,13,0.5c6.903,0,12.5,5.597,12.5,12.5c0,6.904-5.597,12.5-12.5,12.5
		C6.096,25.5,0.5,19.904,0.5,13"/>
	<g>
		<circle fill="none" stroke="#000000" stroke-width="0.625" stroke-miterlimit="10" cx="13" cy="13" r="12.5"/>
	</g>
	<path fill="#FFFFFF" d="M16.502,21.253H9.764v-0.78c0.185-0.012,0.366-0.03,0.543-0.052c0.178-0.021,0.331-0.057,0.459-0.106
		c0.227-0.086,0.386-0.207,0.479-0.367c0.093-0.16,0.139-0.371,0.139-0.635v-6.206c0-0.248-0.056-0.467-0.17-0.656
		c-0.113-0.188-0.256-0.339-0.427-0.453c-0.128-0.086-0.322-0.167-0.581-0.246c-0.259-0.077-0.497-0.128-0.709-0.15v-0.776
		l5.225-0.278l0.159,0.16v8.466c0,0.248,0.054,0.461,0.161,0.634c0.106,0.175,0.258,0.303,0.458,0.39
		c0.142,0.063,0.298,0.121,0.469,0.171s0.349,0.084,0.533,0.104V21.253z M14.946,6.71c0,0.539-0.209,1-0.624,1.38
		c-0.417,0.379-0.908,0.57-1.478,0.57c-0.576,0-1.071-0.19-1.486-0.57c-0.417-0.381-0.625-0.841-0.625-1.38
		c0-0.541,0.208-1.002,0.625-1.387c0.415-0.384,0.91-0.576,1.486-0.576c0.577,0,1.07,0.192,1.483,0.576
		C14.741,5.708,14.946,6.169,14.946,6.71"/>
</g>
</svg>
